<mxfile host="Electron" agent="Mozilla/5.0 (Macintosh; Intel Mac OS X 10_15_7) AppleWebKit/537.36 (KHTML, like Gecko) draw.io/26.0.9 Chrome/128.0.6613.186 Electron/32.2.5 Safari/537.36" version="26.0.9">
  <diagram name="第 1 页" id="6qX-vLTjyrjeRyGPdRBR">
    <mxGraphModel dx="586" dy="425" grid="1" gridSize="10" guides="1" tooltips="1" connect="1" arrows="1" fold="1" page="1" pageScale="1" pageWidth="827" pageHeight="1169" math="0" shadow="0">
      <root>
        <mxCell id="0" />
        <mxCell id="1" parent="0" />
        <mxCell id="cf9ikIbOV-L62M3lsQ3S-23" value="" style="edgeStyle=none;orthogonalLoop=1;jettySize=auto;html=1;rounded=0;strokeColor=default;endArrow=none;startFill=0;dashed=1;" edge="1" parent="1">
          <mxGeometry width="80" relative="1" as="geometry">
            <mxPoint x="264.71" y="40" as="sourcePoint" />
            <mxPoint x="265" y="380" as="targetPoint" />
            <Array as="points" />
          </mxGeometry>
        </mxCell>
        <mxCell id="cf9ikIbOV-L62M3lsQ3S-18" style="edgeStyle=orthogonalEdgeStyle;rounded=0;orthogonalLoop=1;jettySize=auto;html=1;entryX=0.5;entryY=0;entryDx=0;entryDy=0;endArrow=blockThin;endFill=1;" edge="1" parent="1" source="cf9ikIbOV-L62M3lsQ3S-1" target="cf9ikIbOV-L62M3lsQ3S-17">
          <mxGeometry relative="1" as="geometry">
            <Array as="points">
              <mxPoint x="140" y="170" />
              <mxPoint x="390" y="170" />
            </Array>
          </mxGeometry>
        </mxCell>
        <mxCell id="cf9ikIbOV-L62M3lsQ3S-19" style="edgeStyle=orthogonalEdgeStyle;rounded=0;orthogonalLoop=1;jettySize=auto;html=1;endArrow=blockThin;endFill=1;" edge="1" parent="1" source="cf9ikIbOV-L62M3lsQ3S-1" target="cf9ikIbOV-L62M3lsQ3S-12">
          <mxGeometry relative="1" as="geometry" />
        </mxCell>
        <mxCell id="cf9ikIbOV-L62M3lsQ3S-1" value="KeyGen" style="rounded=0;whiteSpace=wrap;html=1;strokeWidth=2;fontSize=16;" vertex="1" parent="1">
          <mxGeometry x="80" y="90" width="120" height="50" as="geometry" />
        </mxCell>
        <mxCell id="cf9ikIbOV-L62M3lsQ3S-27" value="" style="edgeStyle=orthogonalEdgeStyle;rounded=0;orthogonalLoop=1;jettySize=auto;html=1;" edge="1" parent="1" source="cf9ikIbOV-L62M3lsQ3S-2" target="cf9ikIbOV-L62M3lsQ3S-26">
          <mxGeometry relative="1" as="geometry" />
        </mxCell>
        <mxCell id="cf9ikIbOV-L62M3lsQ3S-2" value="Decaps" style="rounded=0;whiteSpace=wrap;html=1;strokeWidth=2;fontSize=16;" vertex="1" parent="1">
          <mxGeometry x="80" y="260" width="120" height="50" as="geometry" />
        </mxCell>
        <mxCell id="cf9ikIbOV-L62M3lsQ3S-16" style="edgeStyle=orthogonalEdgeStyle;rounded=0;orthogonalLoop=1;jettySize=auto;html=1;entryX=1;entryY=0.5;entryDx=0;entryDy=0;endArrow=openThin;endFill=0;" edge="1" parent="1" source="cf9ikIbOV-L62M3lsQ3S-4" target="cf9ikIbOV-L62M3lsQ3S-2">
          <mxGeometry relative="1" as="geometry" />
        </mxCell>
        <mxCell id="cf9ikIbOV-L62M3lsQ3S-4" value="ciphertext" style="rounded=1;whiteSpace=wrap;html=1;fontSize=10;" vertex="1" parent="1">
          <mxGeometry x="230" y="277.5" width="70" height="15" as="geometry" />
        </mxCell>
        <mxCell id="cf9ikIbOV-L62M3lsQ3S-25" value="" style="edgeStyle=orthogonalEdgeStyle;rounded=0;orthogonalLoop=1;jettySize=auto;html=1;endArrow=blockThin;endFill=1;" edge="1" parent="1" source="cf9ikIbOV-L62M3lsQ3S-12" target="cf9ikIbOV-L62M3lsQ3S-2">
          <mxGeometry relative="1" as="geometry" />
        </mxCell>
        <mxCell id="cf9ikIbOV-L62M3lsQ3S-12" value="&lt;font style=&quot;font-size: 10px;&quot;&gt;Decapsulation Key&lt;/font&gt;" style="rounded=1;whiteSpace=wrap;html=1;" vertex="1" parent="1">
          <mxGeometry x="90" y="200" width="100" height="20" as="geometry" />
        </mxCell>
        <mxCell id="cf9ikIbOV-L62M3lsQ3S-14" style="edgeStyle=orthogonalEdgeStyle;rounded=0;orthogonalLoop=1;jettySize=auto;html=1;entryX=1;entryY=0.5;entryDx=0;entryDy=0;strokeColor=default;endArrow=openThin;startFill=0;endFill=0;" edge="1" parent="1" source="cf9ikIbOV-L62M3lsQ3S-13" target="cf9ikIbOV-L62M3lsQ3S-4">
          <mxGeometry relative="1" as="geometry" />
        </mxCell>
        <mxCell id="cf9ikIbOV-L62M3lsQ3S-29" value="" style="edgeStyle=orthogonalEdgeStyle;rounded=0;orthogonalLoop=1;jettySize=auto;html=1;" edge="1" parent="1" source="cf9ikIbOV-L62M3lsQ3S-13" target="cf9ikIbOV-L62M3lsQ3S-28">
          <mxGeometry relative="1" as="geometry" />
        </mxCell>
        <mxCell id="cf9ikIbOV-L62M3lsQ3S-13" value="Encaps" style="rounded=0;whiteSpace=wrap;html=1;strokeWidth=2;fontSize=16;" vertex="1" parent="1">
          <mxGeometry x="330" y="260" width="120" height="50" as="geometry" />
        </mxCell>
        <mxCell id="cf9ikIbOV-L62M3lsQ3S-24" value="" style="edgeStyle=orthogonalEdgeStyle;rounded=0;orthogonalLoop=1;jettySize=auto;html=1;endArrow=blockThin;endFill=1;" edge="1" parent="1" source="cf9ikIbOV-L62M3lsQ3S-17" target="cf9ikIbOV-L62M3lsQ3S-13">
          <mxGeometry relative="1" as="geometry" />
        </mxCell>
        <mxCell id="cf9ikIbOV-L62M3lsQ3S-17" value="&lt;font style=&quot;font-size: 10px;&quot;&gt;Encapsulation Key&lt;/font&gt;" style="rounded=1;whiteSpace=wrap;html=1;" vertex="1" parent="1">
          <mxGeometry x="340" y="200" width="100" height="20" as="geometry" />
        </mxCell>
        <mxCell id="cf9ikIbOV-L62M3lsQ3S-20" value="Alice" style="text;html=1;align=center;verticalAlign=middle;whiteSpace=wrap;rounded=0;fontSize=16;" vertex="1" parent="1">
          <mxGeometry x="110" y="40" width="60" height="30" as="geometry" />
        </mxCell>
        <mxCell id="cf9ikIbOV-L62M3lsQ3S-21" value="Bob" style="text;html=1;align=center;verticalAlign=middle;whiteSpace=wrap;rounded=0;fontSize=16;" vertex="1" parent="1">
          <mxGeometry x="360" y="40" width="60" height="30" as="geometry" />
        </mxCell>
        <mxCell id="cf9ikIbOV-L62M3lsQ3S-26" value="Alice&#39;s copy of the shared secret key" style="rounded=1;whiteSpace=wrap;html=1;fontSize=10;" vertex="1" parent="1">
          <mxGeometry x="95" y="340" width="90" height="40" as="geometry" />
        </mxCell>
        <mxCell id="cf9ikIbOV-L62M3lsQ3S-28" value="Bob&#39;s copy of the shared secret key" style="rounded=1;whiteSpace=wrap;html=1;fontSize=10;" vertex="1" parent="1">
          <mxGeometry x="345" y="340" width="90" height="40" as="geometry" />
        </mxCell>
      </root>
    </mxGraphModel>
  </diagram>
</mxfile>
